<svg id="Layer_1" data-name="Layer 1" xmlns="http://www.w3.org/2000/svg" viewBox="0 0 902.32 317.05"><defs><style>.cls-1{fill:#21b72f;}</style></defs><title>logo-green</title><path d="M187.74,221.93h-19c-2.85,0-3.43-.52-3.42-3.32,0-3.51.23-7,.24-10.54q0-33.57,0-67.15c0-4.39-.21-8.78-.25-13.18,0-3.06.91-3.89,3.87-3.71,1.6.1,3.2.17,4.8.18,10.95.08,21.92-.09,32.87.25a49,49,0,0,1,33.37,14.27,44.64,44.64,0,0,1,13.81,26.78c2.62,20.23-4.56,36.38-21.48,47.92a45.72,45.72,0,0,1-22.34,8c-6.12.49-12.29.37-18.43.5-1.36,0-2.72,0-4.08,0Zm-5.93-48.86q0,18,0,36a18.28,18.28,0,0,0,.12,2.87c.3,1.88,1.17,2.74,3.06,2.71,7.18-.14,14.39.55,21.55-.47,9.18-1.31,16.88-5.29,22.42-12.9,6-8.32,8.36-17.88,8.67-27.94A48.91,48.91,0,0,0,233,151.7c-5.72-12.77-16-18.92-29.53-19.91-6-.44-12-.27-18-.33-2.36,0-3.34.89-3.62,3.25a21,21,0,0,0-.07,2.63Q181.81,155.2,181.81,173.07Z" transform="translate(-35.23 -34.1)"/><path d="M304.32,221.93H272.88c-3.45,0-3.88-.38-3.85-3.84.06-9.43.22-18.86.24-28.29,0-6.15-.24-12.3-.23-18.45,0-9.19.2-18.38.23-27.57,0-5.11-.17-10.22-.25-15.33a11.18,11.18,0,0,1,.07-1.92,2.53,2.53,0,0,1,2.48-2.47A17.45,17.45,0,0,1,274,124c15.75.07,31.51.17,47.26.21,4.32,0,8.64-.14,12.95-.21a10.27,10.27,0,0,1,2.15.13,2.08,2.08,0,0,1,1.89,2.13c.11,4,.42,5.64-4.76,5.47-3.52-.12-7,0-10.56,0-7.43,0-14.85,0-22.28,0-2.79,0-5.59-.19-8.38-.29-.56,0-1.12,0-1.68,0-4.06.1-4.7.74-4.7,4.79V164a19.41,19.41,0,0,0,.05,2.16,2.41,2.41,0,0,0,2.25,2.39,22,22,0,0,0,3.35.23c10.87-.05,21.75-.14,32.62-.18,2.8,0,3.52.78,3.53,3.59a10.11,10.11,0,0,1-.1,1.91,2.45,2.45,0,0,1-2.43,2.22c-.63.06-1.28,0-1.92,0l-32.87,0a13.64,13.64,0,0,0-1.92.06,2.72,2.72,0,0,0-2.53,2.72,13.78,13.78,0,0,0,0,1.44v30a13.41,13.41,0,0,0,.05,1.68,2.48,2.48,0,0,0,2.29,2.37,16,16,0,0,0,2.4.08q22,0,43.91,0a10,10,0,0,1,3,.45,3.69,3.69,0,0,1,2.49,3c.5,2.44-.6,3.8-3.09,3.81H304.32Z" transform="translate(-35.23 -34.1)"/><path d="M353,173V128.2c0-3.6.84-4.3,4.36-4.19,5.51.16,11,.2,16.54.22q18.84,0,37.67,0c1.83,0,3.67-.21,5.51-.19,2.87,0,3.89,1.21,3.63,4-.27,3-1,3.67-4.13,3.64-8.47-.08-16.94-.22-25.41-.29-5.26-.05-10.53,0-15.79,0a18.87,18.87,0,0,0-3.1.24c-1.93.32-2.6,1.06-2.81,3a15.51,15.51,0,0,0,0,1.67v29a13.64,13.64,0,0,0,.07,1.92,2.92,2.92,0,0,0,3,2.79c.64.05,1.28,0,1.92,0l31.67,0c.56,0,1.12,0,1.68,0a2,2,0,0,1,2,2c.64,4.55,0,5.31-4.67,5.3q-15.35,0-30.71,0h-.72c-3.26.07-4.16.89-4.19,4.14-.06,6.31,0,12.62,0,18.94,0,5.75,0,11.5,0,17.26a17.11,17.11,0,0,1-.05,2.15c-.15,1.5-.63,2.07-2.08,2.1-4.08.06-8.15,0-12.23,0a1.93,1.93,0,0,1-2.07-1.89,12.2,12.2,0,0,1-.06-1.91Z" transform="translate(-35.23 -34.1)"/><path d="M475.12,171.26c.86-1.14,1.41-1.8,1.87-2.51q13.41-20.31,26.79-40.62a24.2,24.2,0,0,1,1.67-2.34,4.68,4.68,0,0,1,3.78-1.78c2,.07,4,.26,6,.4.36,1.08-.49,1.68-.92,2.34Q499.56,149,484.76,171.3c-1.28,1.93-2.53,3.88-3.88,5.76a13.07,13.07,0,0,0-2.43,7.87c0,10.95,0,21.89.06,32.84,0,4-.16,4.16-4.18,4.14-3,0-6.07,0-9.11,0-2.56,0-3.27-.74-3.2-3.26.09-3.27.2-6.55.22-9.82,0-7.67,0-15.34.08-23a17.37,17.37,0,0,0-3.2-10.08q-16.26-24.31-32.42-48.69c-.47-.71-.93-1.45-1.54-2.39a7.08,7.08,0,0,1,1.53-.4c4.95,0,9.91,0,14.87-.06,1.85,0,2.88.92,3.82,2.36Q458.67,146.8,472.05,167C472.92,168.29,473.88,169.54,475.12,171.26Z" transform="translate(-35.23 -34.1)"/><path class="cls-1" d="M486.56,34.1c13,.21,26.07.34,39.1.64,8.08.19,16.14.56,24.21,1s16,.87,23.92,1.44c7,.5,14,1.16,21,1.76,6,.52,11.93,1,17.89,1.58,5.08.51,10.14,1.16,15.21,1.76,5.79.68,11.58,1.31,17.35,2.07,6.16.82,12.32,1.72,18.47,2.66s12.45,1.92,18.65,3c9.89,1.74,19.79,3.45,29.63,5.44,18.61,3.77,37.07,8.14,55.35,13.28,28,7.87,55.48,17.3,81.81,29.78,18,8.5,35.18,18.28,50.75,30.75,10.1,8.09,19.21,17.13,26.33,28,5.67,8.68,9.66,18,10.89,28.39a58.86,58.86,0,0,1-4.51,30.7c-4.36,10.12-10.75,18.85-18.31,26.77-10,10.48-21.5,19.1-33.73,26.78-17.78,11.17-36.7,20.08-56.19,27.82a598,598,0,0,1-70.14,22.58c-19.22,5-38.62,9.24-58.15,12.83-11,2-22,3.7-33,5.43q-11.24,1.77-22.5,3.23c-6,.79-12,1.39-18.07,2.06-7.06.77-14.12,1.57-21.19,2.27-4.52.44-9.07.71-13.61,1.07-5.41.43-10.82.89-16.24,1.3-2.78.22-5.57.42-8.37.55-8.22.38-16.45.66-24.67,1.09-18.14.95-36.29,1-54.44,1-9.52,0-19,0-28.56-.21s-18.86-.6-28.28-1c-5.83-.24-11.66-.54-17.48-.94-7.81-.53-15.61-1.16-23.41-1.77-6.45-.51-12.9-1-19.34-1.59-6.75-.65-13.48-1.47-20.22-2.23-5.86-.67-11.74-1.29-17.59-2.07q-10.9-1.46-21.78-3.15c-7.09-1.09-14.19-2.2-21.25-3.48-11.13-2-22.28-4.05-33.35-6.39-21.23-4.48-42.26-9.81-63-16.2-25.22-7.77-49.89-16.93-73.5-28.8-15.61-7.84-30.55-16.76-44.15-27.8-9.23-7.5-17.61-15.81-24.35-25.66a70.26,70.26,0,0,1-11.06-24.54c-3-13.72-1.07-26.83,5-39.39,5-10.35,12.13-19.15,20.34-27.1,13-12.61,28-22.54,43.81-31.24,21.33-11.75,43.79-20.92,66.81-28.75a633.53,633.53,0,0,1,69.11-19.25q20.79-4.53,41.72-8.47c9.31-1.76,18.72-3.08,28.1-4.5,7.56-1.15,15.14-2.24,22.73-3.22,6.09-.79,12.21-1.38,18.31-2.05,5.48-.6,10.94-1.25,16.42-1.78,4.37-.43,8.75-.72,13.13-1.08,5.33-.43,10.66-.89,16-1.31,2.63-.21,5.26-.42,7.89-.55,7.58-.37,15.17-.77,22.75-1,12.94-.49,25.89-1,38.83-1.33,6.32-.17,12.64,0,19,0Zm-.07,307.46v.08c6.72,0,13.44.11,20.16,0,8.79-.18,17.58-.55,26.36-.85,5.36-.17,10.71-.33,16.06-.54,3.67-.15,7.34-.36,11-.57q4.18-.23,8.36-.54c5.34-.4,10.67-.83,16-1.25,4.7-.36,9.4-.67,14.09-1.11,5.56-.52,11.11-1.16,16.66-1.75,6.27-.68,12.54-1.27,18.8-2.07,7.67-1,15.33-2.06,23-3.21,9.46-1.43,18.94-2.76,28.34-4.51q19.86-3.71,39.61-8a612,612,0,0,0,70.69-19.82c21.08-7.32,41.64-15.85,61.16-26.74,14-7.83,27.28-16.69,38.9-27.84,8.26-7.92,15.35-16.72,20.08-27.24a53.5,53.5,0,0,0,4-33.21A64.56,64.56,0,0,0,909,158c-7.26-10.41-16.42-18.94-26.47-26.57-13-9.9-27.2-17.94-41.93-25a459.66,459.66,0,0,0-63-24.25,714.31,714.31,0,0,0-73.76-18.44c-11.11-2.2-22.28-4.07-33.44-5.92-9.21-1.52-18.44-2.88-27.68-4.15-7.19-1-14.41-1.74-21.63-2.54-8.72-.95-17.45-1.93-26.19-2.73-8.11-.75-16.23-1.36-24.36-1.91q-12.67-.85-25.37-1.44c-8.54-.4-17.09-.73-25.64-.93-9.59-.24-19.19-.36-28.78-.42-5.84,0-11.67.11-17.51.22-11.51.2-23,.4-34.54.66q-6.11.13-12.22.52c-9.17.55-18.33,1.15-27.5,1.75-5.26.34-10.53.62-15.78,1.08q-11.45,1-22.87,2.27c-8.33.9-16.66,1.8-25,2.89-10.12,1.32-20.25,2.66-30.31,4.32q-20.06,3.33-40,7.18A661.94,661.94,0,0,0,193,82.86c-24.11,7.58-47.66,16.54-70.1,28.27-15.35,8-30,17.18-42.86,28.83-8.55,7.71-16,16.3-21.35,26.61-8.59,16.66-9,33.5-.94,50.46a85.74,85.74,0,0,0,16.63,23c9.9,10.13,21.26,18.39,33.32,25.73a331.73,331.73,0,0,0,53.94,25.9c41,15.71,83.39,26,126.51,33.62,12.64,2.23,25.35,4,38.06,5.85,9.79,1.4,19.61,2.6,29.43,3.72,8.17.93,16.35,1.69,24.54,2.4q12.64,1.09,25.32,1.91,13.27.85,26.57,1.43c9.74.4,19.49.72,29.24.89C469.69,341.67,478.09,341.56,486.49,341.56Z" transform="translate(-35.23 -34.1)"/><path class="cls-1" d="M688.88,207.09c-1.1,1-1.89,1.66-2.59,2.39a38.24,38.24,0,0,1-23.5,11.37c-13,1.62-24.58-1.89-34.19-11A47.56,47.56,0,0,1,614,180.67c-1.71-13,.85-25.16,8.3-36.06,6.33-9.26,14.88-15.68,26-18,15.19-3.15,28.08,1.26,38.5,12.78.06.06.09.14.15.18.55.38,1.17,1.12,1.65,1,1-.16.78-1.23.8-2,0-2.16,0-4.32,0-6.48,0-4,0-4,3.87-4.88,3-.7,6-1.45,9.08-2.15.76-.17,1.55-.21,2.58-.34a18.69,18.69,0,0,1,.46,2.89c0,8.63-.12,17.26-.14,25.89q0,26.74,0,53.48c0,5.76.21,11.51.18,17.26A38.43,38.43,0,0,1,703,237.94a32.33,32.33,0,0,1-15.13,17,54.27,54.27,0,0,1-28,7.22,49.93,49.93,0,0,1-26-7.94,24.47,24.47,0,0,1-10.64-13.72c-.85-2.75-1.19-3.05-4.07-3-7.75,0-15.51.15-23.26.23l-2.64,0q-73.32,0-146.64.05-33,0-66,.15l-116.14.35c-12.24,0-24.48.06-36.72.13q-30.36.18-60.71.39a9,9,0,0,1-2.14-.11c-.37-.08-.89-.55-.9-.86a1.35,1.35,0,0,1,.74-1,9.9,9.9,0,0,1,2.38-.16q28.32,0,56.63,0,29.16,0,58.32-.05c15.84,0,31.68-.13,47.52-.17q46.9-.15,93.83-.26c18.55,0,37.11,0,55.67-.12q52.44-.18,104.87-.42c12.71-.06,25.43-.25,38.14-.39.56,0,1.12,0,1.68,0,1.7.06,2,.32,2.42,2,.27,1.08.45,2.19.8,3.25a21.32,21.32,0,0,0,10.48,12.28,41.18,41.18,0,0,0,18.72,5.34,35.19,35.19,0,0,0,26.6-10.65c4.35-4.31,6.24-9.85,6.39-15.86.18-7.59.07-15.19.07-22.78A11,11,0,0,0,688.88,207.09Zm.19-33.76h.27c0-7,0-13.91,0-20.87a10.21,10.21,0,0,0-1.61-5.66,39.85,39.85,0,0,0-6.44-8c-9.73-9.1-26.24-11.47-37.8-1.27a32.86,32.86,0,0,0-9.59,14.67A67.31,67.31,0,0,0,634,195a31.25,31.25,0,0,0,8.86,13.75,27.54,27.54,0,0,0,23.28,7.09c7.82-1.15,14.19-5.19,19.28-11.18a16.69,16.69,0,0,0,4.06-12c-.08-1.68-.23-3.35-.29-5s-.08-3.67-.09-5.51C689.06,179.24,689.07,176.28,689.07,173.33Z" transform="translate(-35.23 -34.1)"/><path class="cls-1" d="M582.71,169.48a13.56,13.56,0,0,0,.39-2.24c-.05-6.38.06-12.78-.25-19.16-.36-7.26-4.07-12.67-10.33-16.25a36.84,36.84,0,0,0-15.76-4.45,35.6,35.6,0,0,0-23.28,6.5,29,29,0,0,0-3.35,2.71,13,13,0,0,0-4.24,8.36c-.18,1.74-.58,2.1-2,2.14-1.71.06-2.3-.47-1.94-2.12a27.85,27.85,0,0,1,1.67-5.22,19.11,19.11,0,0,1,5.88-7.17,42.82,42.82,0,0,1,21.7-8.76,52.24,52.24,0,0,1,28.1,3.91,52.83,52.83,0,0,1,6.91,3.81A27.15,27.15,0,0,1,599,152a49.77,49.77,0,0,1,.42,6c.05,19.18,0,38.36.08,57.55,0,4-.32,4.19-4.22,4.08-2.72-.07-5.44,0-8.16,0-3.74,0-3.83-.05-3.79-3.69,0-2.32,0-4.63,0-6.95,0-.62-.1-1.24-.16-1.92-1.18-.15-1.64.73-2.24,1.28a46.4,46.4,0,0,1-15.93,10c-9.91,3.53-20,4.07-30.06.78a31.5,31.5,0,0,1-13.14-8.53c-3.62-3.81-5.28-8.51-5.91-13.61-1.27-10.41,2.87-21.56,13.64-27.1a52.51,52.51,0,0,1,6.64-2.71,62.25,62.25,0,0,1,25.3-2.85,71.21,71.21,0,0,1,18.83,4.36C581,168.91,581.75,169.15,582.71,169.48Zm.67,17.83h0c0-3.36-.05-6.72,0-10.07a4.82,4.82,0,0,0-3.08-4.92c-.44-.2-.87-.41-1.32-.58a53.59,53.59,0,0,0-28.48-2.9c-6.43,1-11.58,4.21-14.38,10.32s-4.23,12.58-2.89,19.34c1.48,7.49,5.72,12.76,13.12,15.1a29.89,29.89,0,0,0,13,1.05,36.09,36.09,0,0,0,20.74-10.06,10.63,10.63,0,0,0,3.35-8.42C583.3,193.22,583.38,190.26,583.38,187.31Z" transform="translate(-35.23 -34.1)"/><path class="cls-1" d="M807.65,202.93a25.22,25.22,0,0,1-6.6,8.38,41,41,0,0,1-17.54,8.44c-14.56,3.39-28.5,1.74-41.33-6.06-13.29-8.08-20.75-20.14-22.11-35.66-1.4-16,3.83-29.61,15.48-40.6a43.3,43.3,0,0,1,24.18-11.23c12.12-1.72,23.37.45,33.5,7.56,9,6.3,14.15,15,16.32,25.63a72,72,0,0,1,1.1,8.79c.16,2-.35,2.4-2.33,2.42-3.52,0-7,0-10.56,0H741.12c-3.78,0-4.34.5-4.29,4.26.09,7,.93,13.89,3.74,20.37,4,9.25,10.22,16.39,19.91,19.94a35.67,35.67,0,0,0,16,1.92,55.69,55.69,0,0,0,10.81-1.93,28.94,28.94,0,0,0,15.48-10.73C804,202.78,805.37,202.19,807.65,202.93Zm-42.23-35.84h0c8.56,0,17.12,0,25.67,0,2.68,0,3.48-.81,3.29-3.48a65.69,65.69,0,0,0-.84-7.13c-1.2-6.68-3.46-13-7.79-18.32-6-7.4-16.21-11.28-26-8a29.62,29.62,0,0,0-17,14.35A45.4,45.4,0,0,0,738.12,158c-.39,2-.75,4.09-1,6.15-.24,2.43.22,2.85,2.58,2.91h25.67Z" transform="translate(-35.23 -34.1)"/><path class="cls-1" d="M762.72,233.25h43.91a3.77,3.77,0,0,1,1.43.05c.42.19.71.67,1.05,1-.36.34-.67.81-1.11,1a3.72,3.72,0,0,1-1.42.05H718a2.93,2.93,0,0,1-1.19-.05c-.37-.18-.93-.67-.87-.89a1.84,1.84,0,0,1,.93-1.11,4.81,4.81,0,0,1,1.66-.07Z" transform="translate(-35.23 -34.1)"/><path d="M549.13,287.47a13.3,13.3,0,0,0,1.23.87c2.74,1.5,3.36,3.94,2.87,6.76a5.82,5.82,0,0,1-4.59,5,13.93,13.93,0,0,1-3.06.48c-2.88.06-5.76,0-8.63,0-1.79,0-2-.19-2-1.89q0-10.43,0-20.85c0-1.58.24-1.79,1.85-1.81,3,0,6.07,0,9.11,0a6.09,6.09,0,0,1,6,4c1,2.59,0,4.66-1.91,6.4A8,8,0,0,0,549.13,287.47Zm-6.8,10.86h0c1,0,1.92,0,2.87,0a11.59,11.59,0,0,0,1.66-.21,4.36,4.36,0,0,0,3.89-4.41,4.26,4.26,0,0,0-3.74-4.53c-2.52-.31-5.08-.31-7.62-.38-1.26,0-1.87.69-1.87,2q0,2.86,0,5.73c0,1.33.74,1.84,2,1.86C540.42,298.34,541.38,298.33,542.33,298.33Zm-4.76-11.82c3,0,5.58,0,8.12,0a4.4,4.4,0,0,0,1.38-.39,3.78,3.78,0,0,0,2.66-3.84,3.71,3.71,0,0,0-3.12-3.73c-2.51-.33-5.08-.32-7.62-.41a1.28,1.28,0,0,0-1.4,1.34C537.54,281.67,537.57,283.88,537.57,286.51Z" transform="translate(-35.23 -34.1)"/><path d="M406.61,289.34a38.84,38.84,0,0,1,8,10.79c-2.15.73-2.58.64-3.72-1-1.38-2-2.78-4.1-4.05-6.21-2-3.39-5.19-3.89-8.71-3.62-1.3.1-1.8.79-1.78,2,0,2.16,0,4.31,0,6.46,0,.48,0,1,0,1.44,0,.85-.38,1.36-1.3,1.33s-1.18-.65-1.18-1.46c0-.31,0-.63,0-.95q0-9.81,0-19.63c0-2.38.1-2.49,2.36-2.5,3.52,0,7,.05,10.54,0,4,0,7.39,2.75,6.31,8.29a5.48,5.48,0,0,1-3.77,4Zm-4.88-2.27v0c1.27,0,2.55.07,3.82,0a5.29,5.29,0,0,0,4-1.79,4.24,4.24,0,0,0,.68-4.49,4.34,4.34,0,0,0-4-2.66c-2.79-.14-5.58,0-8.37-.06-1.12,0-1.59.59-1.59,1.63,0,1.91,0,3.82,0,5.73,0,1.21.64,1.71,1.81,1.68S400.53,287.07,401.73,287.07Z" transform="translate(-35.23 -34.1)"/><path d="M501.72,282.12c-1,.83-1.7.87-2.44-.24-2.41-3.64-5.47-5-9.29-4.13-4.18.91-6.52,3.48-7.35,7.82a15,15,0,0,0,.05,5.7A8.68,8.68,0,0,0,490,298.5a12.58,12.58,0,0,0,7.91-1.28c1.33-.72,2.16-1.59,2-3.2a10.33,10.33,0,0,1,0-1.67c.06-1.2-.49-1.79-1.69-1.79s-2.24,0-3.36,0a4.37,4.37,0,0,1-1.41-.13c-.31-.12-.72-.58-.67-.82a2.14,2.14,0,0,1,.75-1c.14-.13.46-.09.69-.09,2.16,0,4.32,0,6.48,0,1.21,0,1.76.51,1.74,1.72,0,1.92,0,3.84,0,5.75a2.61,2.61,0,0,1-1.18,2.22,14.94,14.94,0,0,1-15.86,1.11c-3.8-2.14-5.18-5.69-5.63-9.75a14.8,14.8,0,0,1,1.11-7,10.27,10.27,0,0,1,9.06-6.83,19.42,19.42,0,0,1,6.39.51C499.29,276.88,500.9,278.88,501.72,282.12Z" transform="translate(-35.23 -34.1)"/><path d="M276.82,276.37c1.95-.88,2.91,0,3.8,1.32q5.14,7.8,10.37,15.55c.48.7,1,1.36,1.54,2.08,1.15-.73.86-1.68.87-2.49,0-4.63,0-9.27,0-13.9a7.49,7.49,0,0,1,.09-1.9c.1-.37.63-.93.87-.89a2.66,2.66,0,0,1,1.18.88c.13.13.1.46.1.69q0,10.55,0,21.09c0,.73-.06,1.62-1,1.65a3.94,3.94,0,0,1-2.15-.63,4.93,4.93,0,0,1-1.12-1.53q-5-7.47-10-14.94c-.52-.77-1.13-1.47-1.73-2.25-1.12.89-.85,1.9-.86,2.8,0,4.64,0,9.27,0,13.9a6,6,0,0,1-.15,1.9,1.31,1.31,0,0,1-1,.74c-.33,0-.75-.48-.94-.84a2.71,2.71,0,0,1-.09-1.18c0-6.79,0-13.58,0-20.37A14.65,14.65,0,0,1,276.82,276.37Z" transform="translate(-35.23 -34.1)"/><path d="M463,295.18c.09-.82.26-1.64.27-2.46,0-4.63,0-9.26,0-13.9a6.23,6.23,0,0,1,.13-1.89,1.32,1.32,0,0,1,1-.8c.34,0,.79.42,1,.77a2.49,2.49,0,0,1,.12,1.17c0,6.87,0,13.74,0,20.61a11.27,11.27,0,0,1-.16,1.36c-2.16.8-2.45.73-3.75-1.2q-5.2-7.75-10.39-15.53c-.5-.75-1.1-1.44-1.66-2.15l-.59.17a22.78,22.78,0,0,0-.25,2.46c0,4.79,0,9.58,0,14.38,0,.86.42,2.07-1,2.31-.87.15-1.22-.52-1.23-2.39,0-6.47,0-12.94,0-19.41,0-1-.41-2.22,1-2.61s2.19.5,2.9,1.57q5.1,7.69,10.25,15.34c.56.82,1.21,1.58,1.81,2.36Z" transform="translate(-35.23 -34.1)"/><path d="M567.54,288.34c0-3.35,0-6.71,0-10.06,0-2.15.15-2.28,2.35-2.29,4.31,0,8.63,0,13,0a3.67,3.67,0,0,1,1.41.16,1.17,1.17,0,0,1,.61.87,1.13,1.13,0,0,1-.61.88,5.32,5.32,0,0,1-1.65.15c-3.12,0-6.24,0-9.36,0s-3.16.08-3.17,3.28q0,1.2,0,2.4c0,2.79.08,2.85,2.79,2.86s5.59,0,8.39,0a4.81,4.81,0,0,1,1.66.07,1.91,1.91,0,0,1,1,1.06c.19.73-.29,1.21-1.06,1.26-.56.05-1.12,0-1.68,0-3.12,0-6.23,0-9.35,0-1.21,0-1.77.51-1.76,1.71,0,1.91,0,3.83,0,5.75,0,1.21.6,1.74,1.73,1.8q1.08.06,2.16.06c3,0,5.92,0,8.87,0a5.31,5.31,0,0,1,1.88.22,1.44,1.44,0,0,1,.64,1.09c0,.25-.42.63-.74.77a3.05,3.05,0,0,1-1.18.1c-4.55,0-9.11,0-13.67,0-2.12,0-2.21-.12-2.23-2.39C567.52,294.9,567.54,291.62,567.54,288.34Z" transform="translate(-35.23 -34.1)"/><path d="M328,282c-1.34.54-2.12.3-2.51-.87-1.29-3.84-7.41-4.44-10.6-2.39a3.44,3.44,0,0,0,.52,6.27,44.23,44.23,0,0,0,5,1.5A43.93,43.93,0,0,1,325,288c2.45,1,4.05,2.85,4.05,5.68a6.45,6.45,0,0,1-3.82,6.17,12.66,12.66,0,0,1-11.54-.19,7,7,0,0,1-3.6-4.3c-.58-1.78-.35-2.07,1.83-2.17.15.4.33.83.5,1.26a6,6,0,0,0,3.87,3.65,10.78,10.78,0,0,0,7.05,0,4.27,4.27,0,0,0,3.22-4c.07-1.79-1.05-3.23-3.24-4-1.81-.61-3.7-1-5.53-1.53a21.66,21.66,0,0,1-3.82-1.36,5.87,5.87,0,0,1-.65-10.21c3.05-2.1,9.11-2.07,12.08.13A5.52,5.52,0,0,1,328,282Z" transform="translate(-35.23 -34.1)"/><path d="M342.94,288.2c0-3.27,0-6.54,0-9.82,0-2.25.12-2.37,2.23-2.39,3.2,0,6.39,0,9.59,0,2.76,0,5,1,6.22,3.66a7.47,7.47,0,0,1-.88,7.92,6.2,6.2,0,0,1-5,2.41c-2.32.09-4.63.09-7,.16s-2.6.36-2.64,2.67c0,2,0,4,0,6,0,.84-.09,1.66-1.21,1.69-1.28,0-1.34-.86-1.33-1.79V288.2Zm7.82-10.31,0,.17h-3.11c-1.67.11-2,.36-2.09,1.93-.08,2.07-.08,4.15,0,6.22.07,1.48.39,1.74,1.95,1.78,2,.05,4,.06,6,0a9.2,9.2,0,0,0,2.78-.63,4.55,4.55,0,0,0,2.73-4.63,4.23,4.23,0,0,0-3.27-4.2C354.1,278.15,352.42,278.09,350.76,277.89Z" transform="translate(-35.23 -34.1)"/><path d="M651.3,285.13a86.49,86.49,0,0,1-.42,8.84c-.62,4.23-3.11,6.46-7.33,7a13.9,13.9,0,0,1-6.39-.65,6.62,6.62,0,0,1-4.74-6.06c-.35-5.57-.36-11.17-.51-16.76,0-.79.21-1.43,1.17-1.47s1.39.62,1.39,1.53c0,3.84,0,7.67,0,11.51a33.1,33.1,0,0,0,.38,4.77,5.49,5.49,0,0,0,5.24,4.74c6.05.48,8.45-1.68,8.52-7.74.05-4,0-8,0-12,0-.56,0-1.12,0-1.68a1.22,1.22,0,0,1,2.44.05c0,1.44,0,2.87,0,4.31v3.6Z" transform="translate(-35.23 -34.1)"/><path d="M597.42,300.15c.14-.52.23-1,.42-1.55,2.65-6.93,5.33-13.86,8-20.79.35-.93.65-1.77,1.89-1.83a2.26,2.26,0,0,1,2.62,1.52c1,2.68,2.16,5.32,3.25,8q2.63,6.43,5.25,12.86c.23.57.38,1.17.57,1.76-2.19.68-2.57.56-3.27-1.13-.61-1.48-1.16-3-1.7-4.48a2.17,2.17,0,0,0-2.34-1.61c-2.63.06-5.27,0-7.91,0a2,2,0,0,0-2.12,1.53c-.54,1.58-1.13,3.16-1.75,4.71S599.53,300.69,597.42,300.15Zm10.83-21.82C606.87,280.4,604,289,604,290.81a54.17,54.17,0,0,0,8.69-.13A115.92,115.92,0,0,0,608.25,278.33Z" transform="translate(-35.23 -34.1)"/><path d="M694.55,276.26c2.06-.68,3.14.05,4,1.55,1.61,2.66,3.34,5.25,5,7.86.38.59.8,1.15,1.43,2.05.62-.8,1.12-1.36,1.52-2,1.81-2.72,3.58-5.47,5.39-8.19,1.07-1.6,1.1-1.58,3.6-1.38-.32.59-.55,1.14-.88,1.63-2.3,3.35-4.55,6.75-7,10a7.9,7.9,0,0,0-1.65,5.33c.08,1.59,0,3.19,0,4.79a4.08,4.08,0,0,1-.14,1.65,1.82,1.82,0,0,1-1.19.84c-.26,0-.85-.54-.88-.88-.13-1.34-.11-2.7-.12-4.06,0-6.3.41-4.45-2.88-9.5-1.87-2.87-3.81-5.71-5.71-8.56C694.94,277.11,694.8,276.75,694.55,276.26Z" transform="translate(-35.23 -34.1)"/><path d="M672.68,289.26c0-2.72,0-5.44,0-8.15,0-3-.07-3-3.14-3.05-1.12,0-2.24,0-3.36,0-.72,0-1.58,0-1.63-1s.76-1.08,1.51-1.08h15.83c.65,0,1.37.06,1.44.91.09,1-.7,1.12-1.45,1.13-1.44,0-2.88,0-4.32,0-2,.06-2.34.32-2.35,2.41,0,5.43,0,10.87,0,16.3,0,.8,0,1.6,0,2.4s-.35,1.37-1.28,1.35-1.2-.63-1.2-1.44c0-2.88,0-5.75,0-8.63Z" transform="translate(-35.23 -34.1)"/><path d="M261.38,288.35v9.55a4.56,4.56,0,0,1-.08,1.66,1.67,1.67,0,0,1-1.13.91,1.72,1.72,0,0,1-1.21-.82,2.77,2.77,0,0,1-.13-1.4q0-9.92,0-19.83a3.27,3.27,0,0,1,.1-1.41,2,2,0,0,1,1.15-.93c.72-.18,1.21.27,1.27,1,0,.56,0,1.11,0,1.67Z" transform="translate(-35.23 -34.1)"/><path d="M375.94,288.31c0-3.19,0-6.37,0-9.56a15.63,15.63,0,0,1,.06-1.67,1,1,0,0,1,1.31-1,2,2,0,0,1,1.11,1,3.46,3.46,0,0,1,.07,1.41v19.59a4.72,4.72,0,0,1-.12,1.65,1.32,1.32,0,0,1-1,.77,1.65,1.65,0,0,1-1.27-.73,4.65,4.65,0,0,1-.17-1.88C375.94,294.68,375.94,291.49,375.94,288.31Z" transform="translate(-35.23 -34.1)"/><path d="M428.64,288.22q0-4.67,0-9.33c0-.56,0-1.12.06-1.67.08-.73.47-1.31,1.23-1.09.4.11.72.68,1,1.12a2.06,2.06,0,0,1,.06.94q0,10.05,0,20.09a3.27,3.27,0,0,1-.14,1.41,1.48,1.48,0,0,1-1,.76,1.36,1.36,0,0,1-1-.78,5.91,5.91,0,0,1-.16-1.89C428.64,294.6,428.65,291.41,428.64,288.22Z" transform="translate(-35.23 -34.1)"/></svg>